<svg xmlns="http://www.w3.org/2000/svg" xmlns:xlink="http://www.w3.org/1999/xlink" width="53" zoomAndPan="magnify" viewBox="0 0 39.75 36.000001" height="48" preserveAspectRatio="xMidYMid meet" version="1.2"><defs><clipPath id="5c743a799f"><path d="M 8.738281 3.957031 L 30.632812 3.957031 L 30.632812 30.957031 L 8.738281 30.957031 Z M 8.738281 3.957031 "/></clipPath></defs><g id="14cffb6d75"><g clip-rule="nonzero" clip-path="url(#5c743a799f)"><path style=" stroke:none;fill-rule:nonzero;fill:#2f0d5e;fill-opacity:1;" d="M 10.710938 15.488281 L 10.710938 22.273438 C 10.710938 22.765625 10.59375 23.261719 10.371094 23.707031 L 8.855469 26.738281 C 8.753906 26.9375 8.765625 27.175781 8.882812 27.363281 C 9 27.550781 9.207031 27.667969 9.425781 27.667969 L 15.894531 27.667969 C 16.203125 29.484375 17.78125 30.871094 19.683594 30.871094 C 20.707031 30.871094 21.675781 30.476562 22.410156 29.746094 C 22.980469 29.171875 23.34375 28.449219 23.476562 27.667969 L 29.941406 27.667969 C 30.164062 27.667969 30.371094 27.550781 30.488281 27.363281 C 30.605469 27.175781 30.613281 26.9375 30.515625 26.738281 L 29 23.707031 C 28.777344 23.261719 28.660156 22.765625 28.660156 22.273438 L 28.660156 15.488281 C 28.660156 13.09375 27.726562 10.839844 26.027344 9.144531 C 24.960938 8.074219 23.652344 7.300781 22.210938 6.875 C 22.226562 6.753906 22.25 6.636719 22.25 6.511719 C 22.25 5.101562 21.097656 3.949219 19.683594 3.949219 C 18.269531 3.949219 17.121094 5.101562 17.121094 6.511719 C 17.121094 6.636719 17.144531 6.757812 17.160156 6.875 C 13.386719 7.984375 10.710938 11.5 10.710938 15.488281 Z M 21.503906 28.839844 C 21.015625 29.324219 20.367188 29.589844 19.683594 29.589844 C 18.492188 29.589844 17.488281 28.773438 17.203125 27.667969 L 22.167969 27.667969 C 22.054688 28.105469 21.828125 28.511719 21.503906 28.839844 Z M 19.683594 5.230469 C 20.390625 5.230469 20.96875 5.804688 20.96875 6.511719 C 20.96875 6.542969 20.964844 6.574219 20.964844 6.605469 C 20.886719 6.59375 20.808594 6.589844 20.734375 6.578125 C 20.660156 6.570312 20.589844 6.5625 20.519531 6.558594 C 20.242188 6.53125 19.960938 6.511719 19.683594 6.511719 C 19.40625 6.511719 19.125 6.53125 18.847656 6.558594 C 18.777344 6.5625 18.710938 6.570312 18.640625 6.578125 C 18.5625 6.585938 18.484375 6.59375 18.40625 6.605469 C 18.402344 6.574219 18.402344 6.542969 18.402344 6.511719 C 18.402344 5.804688 18.976562 5.230469 19.683594 5.230469 Z M 18.078125 7.960938 C 18.878906 7.796875 19.6875 7.753906 20.488281 7.835938 C 20.757812 7.867188 21.023438 7.90625 21.289062 7.960938 C 22.746094 8.277344 24.070312 9 25.121094 10.050781 C 26.578125 11.503906 27.378906 13.433594 27.378906 15.488281 L 27.378906 22.273438 C 27.378906 22.964844 27.542969 23.660156 27.851562 24.28125 L 28.90625 26.386719 L 10.464844 26.386719 L 11.519531 24.28125 C 11.828125 23.660156 11.992188 22.964844 11.992188 22.273438 L 11.992188 15.488281 C 11.992188 11.875 14.554688 8.710938 18.078125 7.960938 "/></g></g></svg>