<svg xmlns="http://www.w3.org/2000/svg" xmlns:xlink="http://www.w3.org/1999/xlink" width="53" zoomAndPan="magnify" viewBox="0 0 39.75 36.000001" height="48" preserveAspectRatio="xMidYMid meet" version="1.2"><defs><clipPath id="54f1d999e3"><path d="M 9 16 L 31 16 L 31 31.5 L 9 31.5 Z M 9 16 "/></clipPath><clipPath id="76a4bb9350"><path d="M 5.460938 3.769531 L 33.921875 3.769531 L 33.921875 17 L 5.460938 17 Z M 5.460938 3.769531 "/></clipPath></defs><g id="8eca6ad8ae"><g clip-rule="nonzero" clip-path="url(#54f1d999e3)"><path style=" stroke:none;fill-rule:nonzero;fill:#2f0d5e;fill-opacity:1;" d="M 28.894531 29.160156 C 28.894531 29.523438 28.601562 29.8125 28.242188 29.8125 L 23.644531 29.8125 C 23.277344 29.8125 22.988281 29.515625 22.988281 29.160156 L 22.988281 22.339844 C 22.988281 21.253906 22.105469 20.371094 21.019531 20.371094 L 18.390625 20.371094 C 17.300781 20.371094 16.417969 21.253906 16.417969 22.339844 L 16.417969 29.160156 C 16.417969 29.523438 16.125 29.8125 15.765625 29.8125 L 11.148438 29.8125 C 10.785156 29.8125 10.496094 29.515625 10.496094 29.160156 L 10.496094 16.015625 L 9.179688 16.015625 L 9.179688 29.160156 C 9.179688 30.246094 10.0625 31.128906 11.148438 31.128906 L 15.746094 31.128906 C 16.835938 31.128906 17.71875 30.246094 17.71875 29.160156 L 17.71875 22.339844 C 17.71875 21.976562 18.011719 21.683594 18.371094 21.683594 L 21 21.683594 C 21.367188 21.683594 21.65625 21.980469 21.65625 22.339844 L 21.65625 29.160156 C 21.65625 30.246094 22.539062 31.128906 23.625 31.128906 L 28.226562 31.128906 C 29.3125 31.128906 30.195312 30.246094 30.195312 29.160156 L 30.195312 16.015625 L 28.878906 16.015625 Z M 28.894531 29.160156 "/></g><g clip-rule="nonzero" clip-path="url(#76a4bb9350)"><path style=" stroke:none;fill-rule:nonzero;fill:#2f0d5e;fill-opacity:1;" d="M 20.972656 4.414062 C 20.226562 3.777344 19.152344 3.777344 18.40625 4.414062 L 5.460938 15.515625 L 6.316406 16.511719 L 19.265625 5.410156 C 19.515625 5.203125 19.875 5.203125 20.121094 5.410156 L 33.070312 16.511719 L 33.921875 15.515625 Z M 20.972656 4.414062 "/></g></g></svg>