<svg xmlns="http://www.w3.org/2000/svg" xmlns:xlink="http://www.w3.org/1999/xlink" width="53" zoomAndPan="magnify" viewBox="0 0 39.75 36.000001" height="48" preserveAspectRatio="xMidYMid meet" version="1.2"><defs><clipPath id="5bd2213e28"><path d="M 9.242188 3.3125 L 30.40625 3.3125 L 30.40625 31.769531 L 9.242188 31.769531 Z M 9.242188 3.3125 "/></clipPath></defs><g id="960045af45"><g clip-rule="nonzero" clip-path="url(#5bd2213e28)"><path style=" stroke:none;fill-rule:nonzero;fill:#2f0d5e;fill-opacity:1;" d="M 27.652344 14.976562 L 27.652344 11.214844 C 27.652344 6.851562 24.101562 3.300781 19.738281 3.300781 C 15.375 3.300781 11.828125 6.851562 11.828125 11.214844 L 11.828125 14.976562 C 10.347656 15.410156 9.265625 16.78125 9.265625 18.398438 L 9.265625 28.132812 C 9.265625 30.101562 10.867188 31.703125 12.835938 31.703125 L 26.644531 31.703125 C 28.613281 31.703125 30.214844 30.101562 30.214844 28.132812 L 30.214844 18.398438 C 30.214844 16.78125 29.128906 15.410156 27.652344 14.976562 Z M 19.738281 5.085938 C 23.117188 5.085938 25.867188 7.835938 25.867188 11.214844 L 25.867188 14.828125 L 13.613281 14.828125 L 13.613281 11.214844 C 13.613281 7.835938 16.359375 5.085938 19.738281 5.085938 Z M 28.429688 28.132812 C 28.429688 29.117188 27.628906 29.917969 26.644531 29.917969 L 12.835938 29.917969 C 11.851562 29.917969 11.050781 29.117188 11.050781 28.132812 L 11.050781 18.398438 C 11.050781 17.585938 11.59375 16.902344 12.335938 16.683594 L 27.140625 16.683594 C 27.882812 16.902344 28.429688 17.585938 28.429688 18.398438 Z M 28.429688 28.132812 "/></g><path style=" stroke:none;fill-rule:nonzero;fill:#2f0d5e;fill-opacity:1;" d="M 21.601562 22.351562 C 21.601562 21.324219 20.765625 20.492188 19.738281 20.492188 C 18.710938 20.492188 17.878906 21.324219 17.878906 22.351562 C 17.878906 23.054688 18.269531 23.667969 18.847656 23.984375 L 18.847656 25.71875 C 18.847656 26.214844 19.246094 26.613281 19.738281 26.613281 C 20.234375 26.613281 20.632812 26.214844 20.632812 25.71875 L 20.632812 23.984375 C 21.207031 23.667969 21.601562 23.054688 21.601562 22.351562 Z M 21.601562 22.351562 "/></g></svg>