<svg xmlns="http://www.w3.org/2000/svg" xmlns:xlink="http://www.w3.org/1999/xlink" width="53" zoomAndPan="magnify" viewBox="0 0 39.75 36.000001" height="48" preserveAspectRatio="xMidYMid meet" version="1.2"><defs><clipPath id="59a13203ec"><path d="M 12 11 L 32.171875 11 L 32.171875 24 L 12 24 Z M 12 11 "/></clipPath><clipPath id="1efcc856c4"><path d="M 7.359375 5.167969 L 24 5.167969 L 24 29.976562 L 7.359375 29.976562 Z M 7.359375 5.167969 "/></clipPath></defs><g id="73744b9b41"><g clip-rule="nonzero" clip-path="url(#59a13203ec)"><path style=" stroke:none;fill-rule:nonzero;fill:#2f0d5e;fill-opacity:1;" d="M 31.640625 16.609375 L 26.832031 11.800781 C 26.710938 11.679688 26.574219 11.585938 26.417969 11.523438 C 26.261719 11.457031 26.101562 11.425781 25.929688 11.425781 C 25.761719 11.425781 25.597656 11.457031 25.441406 11.523438 C 25.285156 11.585938 25.148438 11.679688 25.027344 11.800781 C 24.910156 11.917969 24.816406 12.054688 24.753906 12.210938 C 24.6875 12.367188 24.65625 12.53125 24.65625 12.699219 C 24.65625 12.871094 24.6875 13.03125 24.753906 13.1875 C 24.816406 13.34375 24.910156 13.484375 25.027344 13.601562 L 27.660156 16.234375 L 13.738281 16.234375 C 13.566406 16.234375 13.40625 16.265625 13.25 16.332031 C 13.09375 16.398438 12.953125 16.488281 12.835938 16.609375 C 12.714844 16.726562 12.625 16.867188 12.558594 17.023438 C 12.492188 17.179688 12.460938 17.339844 12.460938 17.511719 C 12.460938 17.679688 12.492188 17.839844 12.558594 17.996094 C 12.625 18.152344 12.714844 18.292969 12.835938 18.410156 C 12.953125 18.53125 13.09375 18.625 13.25 18.6875 C 13.40625 18.753906 13.566406 18.785156 13.738281 18.785156 L 27.660156 18.785156 L 25.027344 21.417969 C 24.910156 21.535156 24.816406 21.675781 24.753906 21.832031 C 24.6875 21.988281 24.65625 22.148438 24.65625 22.320312 C 24.65625 22.488281 24.6875 22.652344 24.753906 22.808594 C 24.816406 22.964844 24.910156 23.101562 25.027344 23.222656 C 25.148438 23.339844 25.285156 23.433594 25.441406 23.496094 C 25.597656 23.5625 25.761719 23.59375 25.929688 23.59375 C 26.101562 23.59375 26.261719 23.5625 26.417969 23.496094 C 26.574219 23.433594 26.710938 23.339844 26.832031 23.222656 L 31.640625 18.410156 C 31.761719 18.292969 31.851562 18.152344 31.917969 17.996094 C 31.984375 17.839844 32.015625 17.679688 32.015625 17.511719 C 32.015625 17.339844 31.984375 17.179688 31.917969 17.023438 C 31.851562 16.867188 31.761719 16.726562 31.640625 16.609375 Z M 31.640625 16.609375 "/></g><g clip-rule="nonzero" clip-path="url(#1efcc856c4)"><path style=" stroke:none;fill-rule:nonzero;fill:#2f0d5e;fill-opacity:1;" d="M 22.238281 24.734375 C 22.070312 24.734375 21.90625 24.769531 21.75 24.832031 C 21.59375 24.898438 21.457031 24.988281 21.335938 25.109375 C 21.21875 25.230469 21.125 25.367188 21.058594 25.523438 C 20.996094 25.679688 20.964844 25.84375 20.964844 26.011719 L 20.964844 27.285156 L 9.910156 27.285156 L 9.910156 7.734375 L 20.964844 7.734375 L 20.964844 9.007812 C 20.964844 9.175781 20.996094 9.339844 21.058594 9.496094 C 21.125 9.652344 21.21875 9.789062 21.335938 9.910156 C 21.457031 10.03125 21.59375 10.121094 21.75 10.1875 C 21.90625 10.25 22.070312 10.285156 22.238281 10.285156 C 22.40625 10.285156 22.570312 10.25 22.726562 10.1875 C 22.882812 10.121094 23.019531 10.03125 23.140625 9.910156 C 23.257812 9.789062 23.351562 9.652344 23.417969 9.496094 C 23.480469 9.339844 23.511719 9.175781 23.511719 9.007812 L 23.511719 7.308594 C 23.511719 7.027344 23.460938 6.753906 23.351562 6.496094 C 23.242188 6.234375 23.089844 6.003906 22.890625 5.804688 C 22.691406 5.605469 22.460938 5.453125 22.203125 5.34375 C 21.941406 5.238281 21.671875 5.183594 21.386719 5.183594 L 9.484375 5.183594 C 9.203125 5.183594 8.933594 5.238281 8.671875 5.34375 C 8.414062 5.453125 8.183594 5.605469 7.984375 5.804688 C 7.785156 6.003906 7.628906 6.234375 7.523438 6.496094 C 7.414062 6.753906 7.359375 7.027344 7.359375 7.308594 L 7.359375 27.710938 C 7.359375 27.992188 7.414062 28.265625 7.523438 28.523438 C 7.628906 28.785156 7.785156 29.015625 7.984375 29.214844 C 8.183594 29.414062 8.414062 29.566406 8.671875 29.675781 C 8.933594 29.785156 9.203125 29.835938 9.484375 29.835938 L 21.386719 29.835938 C 21.671875 29.835938 21.941406 29.785156 22.203125 29.675781 C 22.460938 29.566406 22.691406 29.414062 22.890625 29.214844 C 23.089844 29.015625 23.242188 28.785156 23.351562 28.523438 C 23.460938 28.265625 23.511719 27.992188 23.511719 27.710938 L 23.511719 26.011719 C 23.511719 25.84375 23.480469 25.679688 23.417969 25.523438 C 23.351562 25.367188 23.257812 25.230469 23.140625 25.109375 C 23.019531 24.988281 22.882812 24.898438 22.726562 24.832031 C 22.570312 24.769531 22.40625 24.734375 22.238281 24.734375 Z M 22.238281 24.734375 "/></g></g></svg>