<svg xmlns="http://www.w3.org/2000/svg" xmlns:xlink="http://www.w3.org/1999/xlink" width="53" zoomAndPan="magnify" viewBox="0 0 39.75 36.000001" height="48" preserveAspectRatio="xMidYMid meet" version="1.2"><defs><clipPath id="e03d050a5b"><path d="M 8.625 3.921875 L 31 3.921875 L 31 30.921875 L 8.625 30.921875 Z M 8.625 3.921875 "/></clipPath></defs><g id="c25f952f38"><g clip-rule="nonzero" clip-path="url(#e03d050a5b)"><path style=" stroke:none;fill-rule:nonzero;fill:#2f0d5e;fill-opacity:1;" d="M 19.679688 16.195312 C 20.082031 16.195312 20.480469 16.15625 20.875 16.078125 C 21.269531 15.996094 21.65625 15.882812 22.027344 15.726562 C 22.398438 15.574219 22.753906 15.382812 23.085938 15.160156 C 23.421875 14.9375 23.734375 14.683594 24.019531 14.398438 C 24.300781 14.113281 24.558594 13.800781 24.78125 13.46875 C 25.003906 13.132812 25.195312 12.777344 25.347656 12.40625 C 25.503906 12.035156 25.617188 11.648438 25.695312 11.253906 C 25.777344 10.859375 25.816406 10.460938 25.816406 10.058594 C 25.816406 9.65625 25.777344 9.257812 25.695312 8.859375 C 25.617188 8.464844 25.503906 8.082031 25.347656 7.710938 C 25.195312 7.335938 25.003906 6.984375 24.78125 6.648438 C 24.558594 6.3125 24.300781 6.003906 24.019531 5.71875 C 23.734375 5.433594 23.421875 5.179688 23.085938 4.957031 C 22.753906 4.730469 22.398438 4.542969 22.027344 4.390625 C 21.65625 4.234375 21.269531 4.117188 20.875 4.039062 C 20.480469 3.960938 20.082031 3.921875 19.679688 3.921875 C 19.277344 3.921875 18.875 3.960938 18.480469 4.039062 C 18.085938 4.117188 17.703125 4.234375 17.332031 4.390625 C 16.957031 4.542969 16.605469 4.730469 16.269531 4.957031 C 15.933594 5.179688 15.625 5.433594 15.339844 5.71875 C 15.054688 6.003906 14.800781 6.3125 14.578125 6.648438 C 14.351562 6.984375 14.164062 7.335938 14.007812 7.710938 C 13.855469 8.082031 13.738281 8.464844 13.660156 8.859375 C 13.582031 9.257812 13.542969 9.65625 13.542969 10.058594 C 13.542969 10.460938 13.582031 10.859375 13.660156 11.253906 C 13.742188 11.648438 13.855469 12.03125 14.011719 12.40625 C 14.164062 12.777344 14.355469 13.128906 14.578125 13.464844 C 14.800781 13.800781 15.058594 14.109375 15.339844 14.394531 C 15.625 14.679688 15.9375 14.933594 16.269531 15.15625 C 16.605469 15.382812 16.960938 15.570312 17.332031 15.726562 C 17.703125 15.878906 18.085938 15.996094 18.480469 16.074219 C 18.878906 16.152344 19.277344 16.195312 19.679688 16.195312 Z M 19.679688 6.375 C 20.167969 6.375 20.636719 6.46875 21.085938 6.65625 C 21.539062 6.84375 21.9375 7.109375 22.28125 7.453125 C 22.628906 7.800781 22.894531 8.199219 23.082031 8.648438 C 23.265625 9.101562 23.359375 9.570312 23.359375 10.058594 C 23.359375 10.546875 23.265625 11.015625 23.082031 11.46875 C 22.894531 11.917969 22.628906 12.316406 22.28125 12.660156 C 21.9375 13.007812 21.539062 13.273438 21.085938 13.460938 C 20.636719 13.644531 20.167969 13.738281 19.679688 13.738281 C 19.191406 13.738281 18.722656 13.644531 18.269531 13.460938 C 17.820312 13.273438 17.421875 13.007812 17.074219 12.660156 C 16.730469 12.316406 16.464844 11.917969 16.277344 11.46875 C 16.089844 11.015625 15.996094 10.546875 15.996094 10.058594 C 15.996094 9.570312 16.089844 9.101562 16.277344 8.648438 C 16.464844 8.199219 16.730469 7.800781 17.074219 7.453125 C 17.421875 7.109375 17.820312 6.84375 18.269531 6.65625 C 18.722656 6.46875 19.191406 6.375 19.679688 6.375 Z M 8.632812 29.695312 C 8.632812 28.96875 8.703125 28.25 8.847656 27.539062 C 8.988281 26.828125 9.199219 26.136719 9.476562 25.46875 C 9.753906 24.796875 10.09375 24.164062 10.496094 23.558594 C 10.898438 22.957031 11.355469 22.398438 11.871094 21.886719 C 12.382812 21.375 12.941406 20.917969 13.542969 20.511719 C 14.144531 20.109375 14.78125 19.769531 15.453125 19.492188 C 16.121094 19.214844 16.8125 19.007812 17.523438 18.863281 C 18.234375 18.722656 18.953125 18.652344 19.679688 18.652344 C 20.402344 18.652344 21.121094 18.722656 21.832031 18.863281 C 22.542969 19.007812 23.234375 19.214844 23.90625 19.492188 C 24.574219 19.769531 25.210938 20.109375 25.8125 20.511719 C 26.417969 20.917969 26.976562 21.375 27.488281 21.886719 C 28 22.398438 28.457031 22.957031 28.859375 23.558594 C 29.265625 24.164062 29.605469 24.796875 29.882812 25.46875 C 30.160156 26.136719 30.371094 26.828125 30.511719 27.539062 C 30.652344 28.25 30.722656 28.96875 30.722656 29.695312 C 30.722656 29.855469 30.691406 30.011719 30.628906 30.164062 C 30.570312 30.3125 30.480469 30.445312 30.363281 30.5625 C 30.25 30.675781 30.117188 30.765625 29.964844 30.828125 C 29.816406 30.890625 29.660156 30.921875 29.496094 30.921875 C 29.335938 30.921875 29.175781 30.890625 29.027344 30.828125 C 28.875 30.765625 28.742188 30.675781 28.628906 30.5625 C 28.515625 30.445312 28.425781 30.3125 28.363281 30.164062 C 28.300781 30.011719 28.269531 29.855469 28.269531 29.695312 C 28.269531 29.128906 28.214844 28.570312 28.105469 28.019531 C 27.996094 27.464844 27.832031 26.929688 27.617188 26.40625 C 27.398438 25.886719 27.136719 25.390625 26.820312 24.921875 C 26.507812 24.453125 26.152344 24.019531 25.753906 23.621094 C 25.355469 23.222656 24.921875 22.863281 24.453125 22.550781 C 23.984375 22.238281 23.488281 21.972656 22.964844 21.757812 C 22.445312 21.542969 21.90625 21.378906 21.355469 21.269531 C 20.800781 21.160156 20.242188 21.101562 19.679688 21.101562 C 19.113281 21.101562 18.554688 21.160156 18.003906 21.269531 C 17.449219 21.378906 16.914062 21.542969 16.390625 21.757812 C 15.871094 21.972656 15.375 22.238281 14.90625 22.550781 C 14.4375 22.863281 14.003906 23.222656 13.605469 23.621094 C 13.207031 24.019531 12.847656 24.453125 12.535156 24.921875 C 12.222656 25.390625 11.957031 25.886719 11.742188 26.40625 C 11.527344 26.929688 11.363281 27.464844 11.253906 28.019531 C 11.144531 28.570312 11.085938 29.128906 11.085938 29.695312 C 11.085938 29.855469 11.054688 30.011719 10.996094 30.164062 C 10.933594 30.3125 10.84375 30.445312 10.726562 30.5625 C 10.613281 30.675781 10.480469 30.765625 10.332031 30.828125 C 10.179688 30.890625 10.023438 30.921875 9.859375 30.921875 C 9.699219 30.921875 9.542969 30.890625 9.390625 30.828125 C 9.242188 30.765625 9.109375 30.675781 8.992188 30.5625 C 8.878906 30.445312 8.789062 30.3125 8.726562 30.164062 C 8.664062 30.011719 8.632812 29.855469 8.632812 29.695312 Z M 8.632812 29.695312 "/></g></g></svg>