<svg xmlns="http://www.w3.org/2000/svg" xmlns:xlink="http://www.w3.org/1999/xlink" width="53" zoomAndPan="magnify" viewBox="0 0 39.75 36.000001" height="48" preserveAspectRatio="xMidYMid meet" version="1.2"><defs><clipPath id="654cc0c74c"><path d="M 6.164062 3.613281 L 33.164062 3.613281 L 33.164062 31.34375 L 6.164062 31.34375 Z M 6.164062 3.613281 "/></clipPath></defs><g id="457ba9e172"><g clip-rule="nonzero" clip-path="url(#654cc0c74c)"><path style=" stroke:none;fill-rule:nonzero;fill:#2f0d5e;fill-opacity:1;" d="M 16.863281 3.613281 C 10.964844 3.613281 6.167969 8.410156 6.167969 14.308594 C 6.167969 20.210938 10.964844 25.007812 16.863281 25.007812 C 19.199219 25.007812 21.355469 24.246094 23.117188 22.972656 L 31.390625 31.246094 L 33.171875 29.464844 L 24.972656 21.269531 C 26.582031 19.394531 27.5625 16.96875 27.5625 14.308594 C 27.5625 8.410156 22.765625 3.613281 16.863281 3.613281 Z M 16.863281 4.871094 C 22.085938 4.871094 26.304688 9.089844 26.304688 14.308594 C 26.304688 19.53125 22.085938 23.746094 16.863281 23.746094 C 11.644531 23.746094 7.425781 19.53125 7.425781 14.308594 C 7.425781 9.089844 11.644531 4.871094 16.863281 4.871094 Z M 16.863281 4.871094 "/></g></g></svg>